<svg width="20" height="20" viewBox="0 0 20 20" fill="none" xmlns="http://www.w3.org/2000/svg">
<g clip-path="url(#clip0_7193_109207)">
<path d="M6.66602 8.33464C6.66602 7.89261 6.84161 7.46869 7.15417 7.15612C7.46673 6.84356 7.89065 6.66797 8.33268 6.66797H14.9993C15.4414 6.66797 15.8653 6.84356 16.1779 7.15612C16.4904 7.46869 16.666 7.89261 16.666 8.33464V15.0013C16.666 15.4433 16.4904 15.8673 16.1779 16.1798C15.8653 16.4924 15.4414 16.668 14.9993 16.668H8.33268C7.89065 16.668 7.46673 16.4924 7.15417 16.1798C6.84161 15.8673 6.66602 15.4433 6.66602 15.0013V8.33464Z" stroke="black" stroke-width="1.4" stroke-linecap="round" stroke-linejoin="round"/>
<path d="M13.334 6.66536V4.9987C13.334 4.55667 13.1584 4.13275 12.8458 3.82019C12.5333 3.50763 12.1093 3.33203 11.6673 3.33203H5.00065C4.55862 3.33203 4.1347 3.50763 3.82214 3.82019C3.50958 4.13275 3.33398 4.55667 3.33398 4.9987V11.6654C3.33398 12.1074 3.50958 12.5313 3.82214 12.8439C4.1347 13.1564 4.55862 13.332 5.00065 13.332H6.66732" stroke="black" stroke-width="1.4" stroke-linecap="round" stroke-linejoin="round"/>
</g>
<defs>
<clipPath id="clip0_7193_109207">
<rect width="20" height="20" fill="white"/>
</clipPath>
</defs>
</svg>
