<svg width="20" height="9" viewBox="0 0 20 9" fill="none" xmlns="http://www.w3.org/2000/svg">
<path d="M19.1745 1.03297C19.0758 1.13875 18.9707 1.25294 18.8592 1.37418C18.5123 1.75146 18.0968 2.20252 17.611 2.67433L18.5831 3.59356C18.703 3.70355 18.7738 3.85707 18.7795 4.01966C18.7853 4.18226 18.7256 4.34039 18.6138 4.45867C18.502 4.57692 18.3474 4.64528 18.1848 4.64867C18.0221 4.65192 17.8649 4.58981 17.7483 4.4763L16.7075 3.49267C16.0377 4.06267 15.3103 4.56094 14.5367 4.9793L15.1306 6.20147C15.2255 6.39676 15.2088 6.62799 15.0872 6.80782C14.9654 6.98765 14.7569 7.08883 14.5404 7.07323C14.3236 7.05777 14.1319 6.92784 14.0369 6.73242L13.4321 5.48868V5.48882C12.532 5.84103 11.5826 6.05163 10.6179 6.11305V7.4056C10.6179 7.62272 10.5021 7.82329 10.3141 7.93179C10.1261 8.04028 9.8945 8.04028 9.70653 7.93179C9.51857 7.82329 9.40275 7.62271 9.40275 7.4056V6.11305C8.43769 6.05161 7.48784 5.84114 6.58733 5.48882L5.98316 6.73256L5.98303 6.73242C5.88823 6.92784 5.69633 7.05777 5.47976 7.07323C5.26317 7.08882 5.05474 6.98765 4.93295 6.80782C4.81116 6.628 4.79462 6.39676 4.88941 6.20147L5.48396 4.9793C4.71027 4.56105 3.98254 4.06267 3.31287 3.49267L2.27202 4.4763C2.11375 4.62155 1.8904 4.6724 1.6848 4.60988C1.4792 4.5475 1.32189 4.3811 1.27103 4.17237C1.22018 3.96352 1.28337 3.74343 1.4373 3.59355L2.40968 2.67515C1.92363 2.20306 1.50809 1.752 1.16119 1.3743C1.04985 1.25279 0.94474 1.13914 0.846148 1.0335C0.73128 0.91673 0.668489 0.7586 0.672016 0.594904C0.675406 0.431216 0.744709 0.275797 0.864323 0.163915C0.983937 0.0520288 1.14356 -0.006829 1.30712 0.000631904C1.47067 0.00809073 1.62432 0.0813239 1.73321 0.203517C1.83411 0.311064 1.94165 0.427962 2.05557 0.551635C3.55768 2.18488 6.0721 4.91916 10.0102 4.91916C13.9482 4.91916 16.4622 2.18512 17.9648 0.551635C18.079 0.42741 18.1862 0.310373 18.2874 0.202823C18.4371 0.0505254 18.6557 -0.0119949 18.8632 0.0381831C19.0707 0.0882256 19.2367 0.243509 19.3006 0.447335C19.3643 0.651033 19.3165 0.873325 19.1745 1.03279L19.1745 1.03297Z" fill="#000713"/>
</svg>
