<svg width="24" height="24" viewBox="0 0 24 24" fill="none" xmlns="http://www.w3.org/2000/svg">
<path d="M20.5 18.6034V12.2445C20.5 11.7321 20.3958 11.225 20.1936 10.7541C19.9915 10.2833 19.6957 9.85849 19.3242 9.50557L13.3014 3.78507C12.9504 3.45157 12.4847 3.26562 12.0005 3.26563C11.5163 3.26562 11.0505 3.45157 10.6995 3.78507L4.67583 9.50557C4.30434 9.85849 4.00852 10.2833 3.80638 10.7541C3.60424 11.225 3.5 11.7321 3.5 12.2445V18.6034C3.5 19.1044 3.69901 19.5848 4.05324 19.939C4.40748 20.2933 4.88792 20.4923 5.38889 20.4923H18.6111C19.1121 20.4923 19.5925 20.2933 19.9468 19.939C20.301 19.5848 20.5 19.1044 20.5 18.6034Z" stroke="#424242" stroke-width="1.5" stroke-linecap="round" stroke-linejoin="round"/>
<path d="M9.16797 14.8264C9.16797 14.3254 9.36698 13.845 9.72121 13.4907C10.0754 13.1365 10.5559 12.9375 11.0569 12.9375H12.9457C13.4467 12.9375 13.9272 13.1365 14.2814 13.4907C14.6356 13.845 14.8346 14.3254 14.8346 14.8264V20.4931H9.16797V14.8264Z" stroke="#424242" stroke-width="1.5" stroke-linecap="round" stroke-linejoin="round"/>
</svg>
