<svg width="24" height="24" viewBox="0 0 24 24" fill="none" xmlns="http://www.w3.org/2000/svg">
<path d="M2.95984 14.152L2.95984 14.152C3.5295 11.3021 6.03232 9.24989 8.93845 9.24989H9.41574C11.7263 5.39956 15.9221 2.95 20.5472 2.95C20.826 2.95 21.05 3.17363 21.05 3.4499C21.05 8.07772 18.6004 12.2737 14.7501 14.5842V15.0607C14.7501 17.9676 12.6982 20.4708 9.848 21.0401M2.95984 14.152L9.83821 20.9911M2.95984 14.152C2.89804 14.4614 3.13476 14.75 3.45016 14.75H7.7429M2.95984 14.152L7.7429 14.75M9.848 21.0401L9.83821 20.9911M9.848 21.0401C9.84801 21.0401 9.84801 21.0401 9.84802 21.0401L9.83821 20.9911M9.848 21.0401C9.53861 21.1021 9.25002 20.8653 9.25002 20.5499V16.2568M9.83821 20.9911C9.55977 21.0468 9.30002 20.8338 9.30002 20.5499V16.2361M9.25002 16.2568L9.26467 16.2714L9.30002 16.2361M9.25002 16.2568L7.7429 14.75M9.25002 16.2568V16.2361H9.30002M9.30002 16.2361L7.7429 14.75M9.17939 12.1436L9.1794 12.1436C9.42818 11.397 9.74572 10.6874 10.1235 10.021C10.1339 10.005 10.1428 9.98858 10.1507 9.97258C12.1737 6.4426 15.8903 4.13534 20.0391 3.96044C19.8642 8.11006 17.556 11.8278 14.025 13.85C14.0097 13.8577 13.9951 13.8662 13.9811 13.8751C13.314 14.2534 12.6037 14.5712 11.8562 14.8205L9.88496 15.4779L8.522 14.1149L9.17939 12.1436ZM8.23071 11.8275L7.58956 13.7501L4.09802 13.7501C4.7714 11.7039 6.67973 10.278 8.87354 10.2504C8.62747 10.7567 8.41229 11.2829 8.23071 11.8275ZM12.1723 15.7693C12.7169 15.5877 13.2432 15.3726 13.7493 15.1264C13.7214 17.3206 12.2958 19.2286 10.2498 19.9023V16.4103L12.1723 15.7693ZM16.0498 6.54996C15.2759 6.54996 14.6498 7.17607 14.6498 7.94997C14.6498 8.72386 15.2759 9.34997 16.0498 9.34997C16.8236 9.34997 17.4498 8.72387 17.4498 7.94997C17.4498 7.17607 16.8236 6.54996 16.0498 6.54996ZM16.0498 8.35002C15.8282 8.35002 15.6498 8.17156 15.6498 7.94997C15.6498 7.72837 15.8282 7.54991 16.0498 7.54991C16.2712 7.54991 16.4497 7.72836 16.4497 7.94997C16.4497 8.17158 16.2712 8.35002 16.0498 8.35002Z" fill="#424242" stroke="#424242" stroke-width="0.1"/>
</svg>
