<svg width="24" height="24" viewBox="0 0 24 24" fill="none" xmlns="http://www.w3.org/2000/svg">
<path d="M12 21.5C11.3902 21.5 10.8158 21.1916 10.4093 20.654L9.08372 18.8915C9.05721 18.8562 8.95116 18.8122 8.90698 18.8033H8.46512C4.78 18.8033 2.5 17.8075 2.5 12.8548V8.44852C2.5 4.55334 4.55907 2.5 8.46512 2.5H15.5349C19.4409 2.5 21.5 4.55334 21.5 8.44852V12.8548C21.5 16.75 19.4409 18.8033 15.5349 18.8033H15.093C15.0223 18.8033 14.9605 18.8386 14.9163 18.8915L13.5907 20.654C13.1842 21.1916 12.6098 21.5 12 21.5ZM8.46512 3.82189C5.3014 3.82189 3.82558 5.2936 3.82558 8.44852V12.8548C3.82558 16.8381 5.19535 17.4814 8.46512 17.4814H8.90698C9.35767 17.4814 9.87023 17.737 10.1442 18.0983L11.4698 19.8609C11.7791 20.2662 12.2209 20.2662 12.5302 19.8609L13.8558 18.0983C14.1474 17.7106 14.607 17.4814 15.093 17.4814H15.5349C18.6986 17.4814 20.1744 16.0097 20.1744 12.8548V8.44852C20.1744 5.2936 18.6986 3.82189 15.5349 3.82189H8.46512Z" fill="#424242"/>
<path d="M12 12C11.44 12 11 11.55 11 11C11 10.45 11.45 10 12 10C12.55 10 13 10.45 13 11C13 11.55 12.56 12 12 12Z" fill="#424242"/>
<path d="M15.75 12C15.33 12 15 11.55 15 11C15 10.45 15.3375 10 15.75 10C16.1625 10 16.5 10.45 16.5 11C16.5 11.55 16.17 12 15.75 12Z" fill="#424242"/>
<path d="M8.5 12C7.94 12 7.5 11.55 7.5 11C7.5 10.45 7.95 10 8.5 10C9.05 10 9.5 10.45 9.5 11C9.5 11.55 9.06 12 8.5 12Z" fill="#424242"/>
</svg>
