<svg width="24" height="25" viewBox="0 0 24 25" fill="none" xmlns="http://www.w3.org/2000/svg">
<path d="M12 13.5C12.5523 13.5 13 13.0523 13 12.5C13 11.9477 12.5523 11.5 12 11.5C11.4477 11.5 11 11.9477 11 12.5C11 13.0523 11.4477 13.5 12 13.5Z" fill="#000713" stroke="#000713" stroke-width="1.4" stroke-linecap="round" stroke-linejoin="round"/>
<path d="M12 8.5C12.5523 8.5 13 8.05228 13 7.5C13 6.94772 12.5523 6.5 12 6.5C11.4477 6.5 11 6.94772 11 7.5C11 8.05228 11.4477 8.5 12 8.5Z" fill="#000713" stroke="#000713" stroke-width="1.4" stroke-linecap="round" stroke-linejoin="round"/>
<path d="M12 18.5C12.5523 18.5 13 18.0523 13 17.5C13 16.9477 12.5523 16.5 12 16.5C11.4477 16.5 11 16.9477 11 17.5C11 18.0523 11.4477 18.5 12 18.5Z" fill="#000713" stroke="#000713" stroke-width="1.4" stroke-linecap="round" stroke-linejoin="round"/>
</svg>
