<svg width="24" height="24" viewBox="0 0 24 24" fill="none" xmlns="http://www.w3.org/2000/svg">
<path d="M9.63873 11.5C9.61272 11.5 9.59538 11.5 9.56936 11.5C9.52601 11.4913 9.46532 11.4913 9.41329 11.5C6.89884 11.4219 5 9.44311 5 7.00434C5 4.52218 7.02023 2.5 9.5 2.5C11.9798 2.5 14 4.52218 14 7.00434C13.9913 9.44311 12.0838 11.4219 9.66474 11.5C9.65607 11.5 9.6474 11.5 9.63873 11.5ZM9.5 3.80183C7.73988 3.80183 6.30058 5.24253 6.30058 7.00434C6.30058 8.74012 7.65318 10.1374 9.37861 10.1982C9.43064 10.1895 9.54335 10.1895 9.65607 10.1982C11.3555 10.1201 12.6908 8.72276 12.6994 7.00434C12.6994 5.24253 11.2601 3.80183 9.5 3.80183Z" fill="#424242"/>
<path d="M15.8534 12C15.8268 12 15.8003 12 15.7737 11.9912C15.4108 12.0265 15.0391 11.7706 15.0037 11.4088C14.9683 11.0471 15.1896 10.7206 15.5525 10.6765C15.6587 10.6676 15.7737 10.6676 15.8711 10.6676C17.1633 10.5971 18.1724 9.53824 18.1724 8.24118C18.1724 6.9 17.0837 5.81471 15.7383 5.81471C15.3754 5.82353 15.0745 5.52353 15.0745 5.16176C15.0745 4.8 15.3754 4.5 15.7383 4.5C17.8095 4.5 19.5 6.18529 19.5 8.25C19.5 10.2794 17.9068 11.9206 15.8799 12C15.8711 12 15.8622 12 15.8534 12Z" fill="#424242"/>
<path d="M9.5 21C7.81704 21 6.1255 20.5797 4.8461 19.7392C3.65258 18.9659 3 17.9068 3 16.7553C3 15.6037 3.65258 14.5362 4.8461 13.7545C7.42206 12.0818 11.5951 12.0818 14.1539 13.7545C15.3388 14.5278 16 15.5869 16 16.7384C16 17.89 15.3474 18.9575 14.1539 19.7392C12.8659 20.5797 11.183 21 9.5 21ZM5.55878 14.8136C4.73448 15.3515 4.28798 16.0408 4.28798 16.7637C4.28798 17.4781 4.74306 18.1674 5.55878 18.6969C7.69683 20.1006 11.3032 20.1006 13.4412 18.6969C14.2655 18.159 14.712 17.4697 14.712 16.7468C14.712 16.0324 14.2569 15.3431 13.4412 14.8136C11.3032 13.4183 7.69683 13.4183 5.55878 14.8136Z" fill="#424242"/>
<path d="M17.6425 19.5C17.3405 19.5 17.0729 19.2922 17.0125 18.9805C16.9434 18.6256 17.1678 18.2879 17.5131 18.21C18.0568 18.0975 18.5574 17.881 18.9458 17.578C19.4378 17.2057 19.7054 16.7382 19.7054 16.2447C19.7054 15.7512 19.4378 15.2837 18.9545 14.9201C18.5747 14.6258 18.1 14.418 17.539 14.2881C17.1937 14.2102 16.9693 13.8639 17.047 13.5089C17.1247 13.1626 17.4699 12.9375 17.8238 13.0154C18.5661 13.1799 19.2134 13.4743 19.7399 13.8812C20.5426 14.4872 21 15.3443 21 16.2447C21 17.1451 20.5339 18.0022 19.7312 18.6169C19.1961 19.0325 18.5229 19.3355 17.7806 19.4827C17.7289 19.5 17.6857 19.5 17.6425 19.5Z" fill="#424242"/>
</svg>
