<svg width="68" height="68" viewBox="0 0 68 68" fill="none" xmlns="http://www.w3.org/2000/svg">
<g filter="url(#filter0_d_7193_113146)">
<circle cx="34" cy="30" r="24" fill="#005CFF"/>
<circle cx="34" cy="30" r="23.5" stroke="white"/>
</g>
<g clip-path="url(#clip0_7193_113146)">
<path d="M27 25H28C28.5304 25 29.0391 24.7893 29.4142 24.4142C29.7893 24.0391 30 23.5304 30 23C30 22.7348 30.1054 22.4804 30.2929 22.2929C30.4804 22.1054 30.7348 22 31 22H37C37.2652 22 37.5196 22.1054 37.7071 22.2929C37.8946 22.4804 38 22.7348 38 23C38 23.5304 38.2107 24.0391 38.5858 24.4142C38.9609 24.7893 39.4696 25 40 25H41C41.5304 25 42.0391 25.2107 42.4142 25.5858C42.7893 25.9609 43 26.4696 43 27V36C43 36.5304 42.7893 37.0391 42.4142 37.4142C42.0391 37.7893 41.5304 38 41 38H27C26.4696 38 25.9609 37.7893 25.5858 37.4142C25.2107 37.0391 25 36.5304 25 36V27C25 26.4696 25.2107 25.9609 25.5858 25.5858C25.9609 25.2107 26.4696 25 27 25Z" stroke="white" stroke-width="1.4" stroke-linecap="round" stroke-linejoin="round"/>
<path d="M31 31C31 31.7956 31.3161 32.5587 31.8787 33.1213C32.4413 33.6839 33.2044 34 34 34C34.7956 34 35.5587 33.6839 36.1213 33.1213C36.6839 32.5587 37 31.7956 37 31C37 30.2044 36.6839 29.4413 36.1213 28.8787C35.5587 28.3161 34.7956 28 34 28C33.2044 28 32.4413 28.3161 31.8787 28.8787C31.3161 29.4413 31 30.2044 31 31Z" stroke="white" stroke-width="1.4" stroke-linecap="round" stroke-linejoin="round"/>
</g>
<defs>
<filter id="filter0_d_7193_113146" x="0" y="0" width="68" height="68" filterUnits="userSpaceOnUse" color-interpolation-filters="sRGB">
<feFlood flood-opacity="0" result="BackgroundImageFix"/>
<feColorMatrix in="SourceAlpha" type="matrix" values="0 0 0 0 0 0 0 0 0 0 0 0 0 0 0 0 0 0 127 0" result="hardAlpha"/>
<feMorphology radius="3" operator="dilate" in="SourceAlpha" result="effect1_dropShadow_7193_113146"/>
<feOffset dy="4"/>
<feGaussianBlur stdDeviation="3.5"/>
<feComposite in2="hardAlpha" operator="out"/>
<feColorMatrix type="matrix" values="0 0 0 0 0 0 0 0 0 0.360784 0 0 0 0 1 0 0 0 0.08 0"/>
<feBlend mode="normal" in2="BackgroundImageFix" result="effect1_dropShadow_7193_113146"/>
<feBlend mode="normal" in="SourceGraphic" in2="effect1_dropShadow_7193_113146" result="shape"/>
</filter>
<clipPath id="clip0_7193_113146">
<rect width="24" height="24" fill="white" transform="translate(22 18)"/>
</clipPath>
</defs>
</svg>
